<?xml version="1.0" standalone="no"?>
<!DOCTYPE svg PUBLIC "-//W3C//DTD SVG 20010904//EN"
 "http://www.w3.org/TR/2001/REC-SVG-20010904/DTD/svg10.dtd">
<svg version="1.0" xmlns="http://www.w3.org/2000/svg"
 width="512.000000pt" height="512.000000pt" viewBox="0 0 512.000000 512.000000"
 preserveAspectRatio="xMidYMid meet">
<metadata>
Created by potrace 1.14, written by Peter Selinger 2001-2017
</metadata>
<g transform="translate(0.000000,512.000000) scale(0.100000,-0.100000)"
fill="#000000" stroke="none">
<path d="M970 4233 c-65 -18 -88 -58 -91 -155 -2 -61 -4 -66 -20 -57 -11 6
-20 6 -24 -1 -3 -5 -11 -10 -16 -10 -6 0 -7 5 -3 12 4 6 3 8 -3 5 -15 -9 -23
-47 -11 -47 6 0 5 -6 -2 -15 -14 -16 -4 -19 52 -15 l27 1 0 -211 c0 -129 -4
-208 -10 -205 -5 4 -9 0 -9 -7 0 -9 -3 -9 -10 2 -8 12 -10 12 -10 1 0 -9 -4
-10 -12 -3 -9 7 -17 6 -26 -4 -9 -10 -9 -14 -1 -14 8 0 8 -4 -1 -15 -9 -10 -9
-15 -1 -15 6 0 11 -6 11 -13 0 -7 9 -13 20 -13 11 0 20 4 20 8 0 4 7 5 15 2
13 -5 15 -57 14 -370 0 -275 -3 -364 -12 -365 -7 0 -20 -2 -30 -4 -9 -2 -15 1
-11 6 8 14 -6 10 -22 -6 -10 -10 -11 -15 -3 -15 9 0 8 -4 -1 -15 -9 -10 -9
-15 -1 -15 6 0 11 -7 11 -15 0 -12 4 -14 16 -7 9 5 25 7 35 5 17 -5 18 -22 18
-263 0 -217 -2 -259 -14 -264 -8 -3 -15 -2 -15 2 0 4 -11 7 -24 7 -13 0 -22
-3 -20 -7 2 -3 -2 -9 -8 -11 -10 -4 -9 -6 1 -6 11 -1 11 -4 1 -16 -9 -11 -9
-15 -1 -15 7 0 10 -4 7 -9 -3 -5 3 -11 14 -14 13 -3 18 -1 13 6 -4 7 1 6 10
-2 14 -11 17 -11 17 0 0 11 2 11 10 -1 5 -8 10 -103 9 -217 0 -164 -3 -204
-14 -213 -11 -9 -15 -9 -15 -1 0 6 -5 11 -11 11 -5 0 -7 -5 -3 -11 4 -7 -1 -7
-16 1 -12 7 -20 7 -16 2 3 -6 0 -13 -6 -15 -10 -4 -9 -6 1 -6 11 -1 11 -4 1
-16 -9 -11 -9 -15 -1 -15 7 0 9 -4 6 -10 -4 -6 10 -10 34 -10 l40 0 0 -257 c0
-147 -4 -264 -9 -273 -5 -8 -10 -10 -10 -5 0 6 -9 11 -20 11 -11 0 -20 -4 -20
-8 0 -4 -3 -7 -8 -7 -19 3 -23 -2 -12 -16 10 -12 10 -15 0 -15 -10 0 -10 -3 0
-15 7 -8 28 -15 46 -15 34 0 34 0 34 -46 0 -25 7 -61 16 -79 33 -70 -95 -65
1714 -65 1819 0 1684 -5 1713 68 8 20 14 53 13 72 -1 45 12 61 39 48 11 -6 17
-7 13 -3 -4 4 0 14 10 21 14 11 14 13 2 14 -10 0 -11 3 -3 8 8 5 8 12 -3 26
-8 11 -14 15 -14 10 0 -13 -36 -13 -38 1 -5 62 -23 97 -64 127 l-33 23 -1475
0 -1475 0 0 180 c-1 178 4 207 33 197 7 -2 20 -1 28 2 13 5 14 9 4 21 -8 10
-9 15 -2 15 6 0 9 7 6 15 -4 8 -10 13 -14 10 -5 -3 -12 0 -16 6 -4 8 -9 7 -15
-2 -7 -11 -9 -11 -9 -1 0 7 -3 11 -8 9 -4 -3 -7 90 -7 206 l0 212 30 3 c31 4
61 22 36 22 -10 0 -10 4 -3 13 15 17 -10 51 -26 35 -8 -8 -14 -7 -24 3 -20 21
-19 506 0 514 8 3 18 2 24 -1 5 -3 12 3 15 15 3 11 8 19 12 16 4 -2 7 5 6 16
-2 25 -26 43 -36 27 -6 -9 -11 -9 -21 -1 -10 9 -13 82 -12 370 2 400 1 383 13
364 6 -9 14 -10 22 -5 8 5 17 9 21 9 13 0 21 15 8 15 -10 0 -10 3 0 15 9 10 9
15 1 15 -6 0 -11 8 -11 18 0 14 -2 15 -10 2 -9 -13 -10 -13 -10 0 0 12 -2 12
-9 1 -19 -30 -26 21 -26 216 0 185 1 202 17 207 10 2 16 0 13 -4 -6 -10 15 -8
33 3 7 5 9 14 5 20 -4 7 -8 17 -9 22 0 6 -2 15 -2 20 -2 13 -42 14 -42 1 0 -5
-3 -6 -7 -3 -3 4 -8 34 -9 67 -4 68 -23 112 -61 137 -21 14 -50 18 -137 19
-61 0 -118 -1 -126 -3z"/>
<path d="M1670 3783 c-33 -12 -40 -36 -40 -147 0 -60 -3 -107 -6 -103 -12 12
-33 -17 -22 -30 7 -9 6 -13 -3 -13 -10 -1 -9 -4 3 -14 10 -7 15 -16 11 -19 -3
-4 -1 -7 5 -7 9 0 11 -93 11 -351 0 -193 -3 -358 -6 -365 -3 -8 -12 -14 -20
-14 -13 0 -13 -3 -3 -15 10 -12 10 -15 -1 -15 -10 -1 -9 -4 3 -14 10 -7 15
-16 11 -19 -3 -4 -1 -7 6 -7 8 0 11 -64 11 -251 -1 -234 -2 -251 -21 -270 -10
-10 -14 -19 -8 -19 8 0 7 -5 -1 -16 -11 -13 -10 -16 7 -20 20 -6 21 -13 22
-215 1 -115 -2 -209 -6 -209 -5 0 -14 -9 -21 -21 -11 -17 -11 -20 0 -13 10 6
10 4 -1 -9 -9 -11 -10 -17 -2 -17 6 0 11 -7 11 -16 0 -8 5 -12 11 -9 6 4 16
-1 24 -11 12 -17 28 -19 138 -19 105 0 128 3 144 17 11 10 32 18 48 18 16 0
25 3 22 6 -3 4 -2 15 4 25 7 13 6 19 -1 19 -6 0 -9 4 -6 9 3 5 -1 12 -10 15
-8 3 -12 2 -9 -4 3 -6 -1 -7 -9 -4 -14 5 -16 36 -16 220 l0 214 24 0 c14 0 28
5 31 10 3 6 1 10 -6 10 -8 0 -8 4 1 15 9 11 9 15 1 15 -7 0 -10 4 -6 9 3 5 1
12 -4 15 -5 4 -12 2 -16 -4 -20 -32 -25 24 -25 261 0 171 3 258 10 254 6 -3
10 -1 10 5 0 6 5 8 10 5 6 -4 10 8 10 29 0 19 -4 38 -10 41 -5 3 -10 1 -10 -5
0 -6 -4 -8 -10 -5 -6 4 -10 100 -10 256 0 208 2 249 14 249 9 0 17 -15 21 -40
4 -23 12 -40 20 -40 13 0 25 -21 25 -46 0 -8 9 -23 20 -34 11 -11 20 -29 20
-40 0 -11 7 -23 15 -26 8 -3 17 -22 21 -41 4 -19 12 -37 20 -40 7 -2 18 -21
25 -41 6 -21 17 -41 24 -47 6 -5 17 -27 24 -47 7 -21 17 -38 22 -38 5 0 9 -5
9 -11 0 -5 -4 -7 -10 -4 -5 3 -10 1 -10 -6 0 -8 -4 -8 -15 1 -11 9 -15 9 -15
1 0 -7 -4 -9 -10 -6 -5 3 -10 3 -11 -2 0 -4 -2 -18 -3 -30 -2 -13 1 -23 6 -23
5 0 6 -5 2 -11 -4 -7 1 -7 16 1 12 7 25 8 29 4 9 -13 34 -16 26 -4 -3 5 -1 10
4 10 6 0 11 -5 11 -12 0 -6 3 -9 6 -5 9 8 34 -18 34 -35 0 -8 4 -18 10 -24 5
-5 22 -34 38 -64 16 -30 43 -81 60 -113 18 -31 32 -63 32 -71 0 -7 9 -21 20
-31 11 -10 20 -26 20 -37 0 -10 9 -27 20 -38 11 -11 20 -31 20 -45 0 -16 6
-25 15 -25 9 0 15 -9 15 -22 0 -17 -3 -19 -9 -9 -6 9 -14 10 -22 5 -8 -5 -17
-9 -21 -9 -13 0 -21 -15 -8 -15 11 0 11 -3 3 -11 -20 -20 11 -39 61 -39 41 0
46 -3 52 -25 4 -14 9 -24 12 -21 3 3 11 1 19 -5 34 -29 303 -18 303 12 0 24
31 41 65 36 22 -3 39 0 46 9 9 11 8 14 -1 14 -10 0 -10 3 0 15 8 10 9 15 2 15
-6 0 -9 7 -5 16 5 14 3 15 -15 5 -25 -13 -38 1 -17 19 8 7 15 18 15 26 0 21
22 64 30 59 4 -3 11 10 14 29 4 19 13 37 21 40 8 3 15 13 15 21 0 9 16 46 36
83 20 37 55 103 79 147 38 73 80 116 95 97 7 -9 50 -10 44 -1 -2 4 2 10 8 12
10 4 9 6 -1 6 -11 1 -11 4 -1 16 9 11 9 15 1 15 -7 0 -9 5 -5 12 5 7 1 9 -13
6 -12 -3 -27 -2 -34 3 -12 8 -11 11 3 19 9 6 20 25 24 42 3 18 12 37 19 43 7
5 18 26 24 47 7 20 18 39 25 41 8 3 16 21 20 40 4 19 13 37 20 40 7 3 16 21
20 41 4 20 12 35 18 33 6 -1 15 14 19 33 4 18 14 39 22 45 9 6 19 27 24 46 20
77 28 20 31 -220 l2 -250 -32 -3 c-24 -2 -32 -8 -33 -25 -1 -13 2 -23 7 -23 4
0 8 -7 8 -15 0 -12 4 -13 19 -6 15 8 20 7 25 -5 3 -9 6 -127 6 -263 0 -191 -3
-248 -12 -249 -38 -3 -79 -22 -48 -22 10 0 10 -3 0 -15 -9 -11 -9 -15 -1 -15
7 0 10 -4 7 -9 -3 -5 1 -11 8 -14 8 -3 16 -1 18 5 2 6 10 8 16 4 9 -5 12 -65
12 -216 0 -199 -1 -210 -20 -220 -15 -8 -20 -8 -20 2 0 6 -6 3 -14 -8 -11 -14
-11 -21 -3 -26 9 -6 8 -8 -1 -8 -11 0 -11 -2 0 -13 20 -20 48 -28 48 -14 1 7
5 6 13 -4 24 -31 56 -39 156 -39 91 0 151 12 151 30 0 4 9 10 20 13 11 3 18 2
16 -2 -2 -3 13 -5 34 -3 32 3 38 7 35 23 -2 10 0 19 6 19 5 0 4 9 -3 20 -9 14
-14 16 -20 7 -5 -7 -8 -8 -8 -1 0 12 -28 12 -47 1 -20 -12 -23 21 -23 228 0
218 0 219 51 205 15 -5 32 -4 38 0 15 9 22 60 9 60 -5 0 -6 5 -2 11 4 7 -2 6
-17 -1 -18 -10 -24 -10 -27 -1 -3 9 -7 9 -19 0 -12 -10 -16 -10 -24 2 -11 18
-12 499 0 518 6 9 10 10 16 2 5 -9 10 -9 21 0 11 9 14 9 14 -1 0 -9 3 -10 13
-1 8 6 18 7 22 3 5 -4 5 -1 1 6 -4 7 -2 12 5 12 8 0 7 5 -2 17 -9 11 -10 14
-2 9 9 -5 11 -2 7 8 -4 12 -20 16 -55 16 l-49 0 0 364 c0 314 2 365 15 370 8
3 15 0 15 -6 0 -7 4 -7 13 1 9 7 17 7 23 1 7 -7 17 -4 29 10 12 13 14 20 5 20
-10 0 -10 3 -1 14 17 20 -14 36 -50 26 -42 -12 -49 4 -49 115 0 55 -4 105 -8
110 -21 29 -56 35 -196 35 -145 0 -196 -8 -196 -33 0 -7 -9 -20 -20 -30 -11
-9 -20 -25 -20 -35 0 -11 -9 -29 -20 -42 -11 -13 -20 -29 -20 -37 0 -14 -37
-72 -54 -84 -5 -4 -21 -3 -37 1 -34 10 -39 5 -39 -36 0 -31 15 -55 22 -34 1 5
8 6 15 2 9 -6 9 -13 -2 -32 -7 -14 -32 -63 -56 -110 -23 -47 -45 -87 -48 -90
-12 -10 -31 -50 -31 -64 0 -8 -4 -16 -9 -18 -14 -5 -81 -137 -81 -160 0 -12
-3 -18 -7 -15 -8 9 -32 -24 -33 -46 0 -10 -9 -27 -20 -39 -11 -12 -20 -30 -20
-40 0 -10 -9 -27 -19 -37 -10 -10 -22 -33 -26 -51 -7 -30 -9 -31 -46 -27 -43
5 -67 -11 -47 -31 9 -9 9 -12 -1 -12 -11 0 -11 -3 -1 -15 8 -9 21 -13 34 -10
12 4 16 3 10 -2 -14 -10 -44 -72 -44 -90 0 -7 -4 -13 -10 -13 -5 0 -10 -6 -10
-13 0 -7 -9 -23 -20 -35 -11 -12 -20 -26 -20 -31 0 -12 -32 -84 -41 -91 -3 -3
-8 -11 -11 -19 -4 -14 -58 88 -58 110 0 5 -9 19 -20 31 -11 12 -20 30 -20 40
0 11 -4 16 -10 13 -5 -3 -10 3 -10 14 0 12 -4 21 -10 21 -5 0 -10 9 -10 20 0
11 -4 20 -10 20 -5 0 -7 7 -4 15 4 8 10 13 14 10 4 -3 10 2 14 10 3 8 1 15 -4
15 -5 0 -7 7 -3 16 7 20 -17 37 -33 23 -8 -7 -14 -6 -19 1 -3 6 -10 8 -14 5
-5 -2 -13 14 -20 36 -7 22 -16 37 -21 34 -5 -3 -12 10 -15 29 -4 19 -15 43
-26 55 -10 11 -19 27 -19 36 0 8 -9 24 -20 35 -11 11 -20 28 -21 38 0 9 -14
40 -30 67 -16 28 -32 58 -35 68 -4 9 -10 17 -15 17 -5 0 -9 7 -9 15 0 15 -19
55 -31 65 -3 3 -25 43 -48 90 -24 47 -49 96 -56 110 -15 26 -4 43 21 33 16 -6
28 14 13 23 -8 5 -8 8 0 13 8 5 5 13 -9 26 -11 10 -20 14 -20 8 0 -18 -59 -2
-65 18 -4 10 -10 19 -15 19 -5 0 -14 18 -20 40 -6 22 -15 40 -20 40 -5 0 -14
18 -20 40 -6 22 -15 38 -20 35 -5 -3 -12 6 -16 20 -4 15 -17 30 -31 36 -25 9
-307 11 -333 2z"/>
</g>
</svg>
